<svg xmlns="http://www.w3.org/2000/svg" width="133.24" height="28.174" viewBox="0 0 133.24 28.174">
  <path id="path0" d="M13.739,3.715c0,.381.084.418,1.136.5,1.5.121,2.439.709,2.638,1.649.281,1.324.169,22.511-.122,23.075-.45.873-1.1,1.215-2.44,1.291-1.2.068-1.212.071-1.212.57v.5h12v-.521c0-.513-.015-.522-.913-.526a3.061,3.061,0,0,1-2.684-1.243c-.382-.7-.588-19.2-.244-22.005.258-2.111,1.016-2.835,2.966-2.835.818,0,.875-.029.875-.435V3.3h-12v.411m96.6,15.45c-4.626,10.837-4.649,10.88-6,11.222-.432.11-.625.266-.664.536-.056.381-.051.381,3.186.381h3.241l-.055-.391a.479.479,0,0,0-.491-.44c-2.021-.226-2.14-.724-.882-3.69l.848-2,3.713-.047,3.713-.047.827,2.047c1.15,2.844,1.091,3.452-.358,3.687-.494.079-.656.194-.7.492l-.056.389h7.875l-.056-.389a.508.508,0,0,0-.4-.445c-1.614-.255-1.794-.573-5.993-10.609-2.941-7.029-3.682-8.653-3.965-8.7-.306-.047-.774.943-3.786,8M27.756,12.739c-.268,2.99-.235,3.609.195,3.609.318,0,.4-.1.4-.485,0-1.847,1.2-2.717,3.843-2.791l2.08-.058-.049,8.291L34.174,29.6l-.482.414a2.739,2.739,0,0,1-1.347.529c-.69.091-.867.181-.867.44,0,.309.214.325,4.261.325S40,31.288,40,30.979c0-.259-.177-.349-.866-.44a2.739,2.739,0,0,1-1.348-.529L37.3,29.6l-.05-8.276-.05-8.277h1.865c2.743,0,3.864.691,4.162,2.566.09.564.195.739.443.739.347,0,.477-2.457.214-4.044l-.107-.652H27.854l-.1,1.087M45.217,12c0,.3.116.348.775.348,2.043,0,2.008-.159,2.008,9.257v7.813l-.5.5a2.141,2.141,0,0,1-1.392.618c-.713.095-.892.184-.892.444,0,.313.291.325,7.614.325h7.614L61.2,29c.417-1.267.8-2.4.84-2.522.2-.535-.765-.21-1.031.348-1.233,2.579-2.382,3.149-6.367,3.163-4,.014-3.688.407-3.688-4.632V21.535l2.826.059c3.493.072,3.814.218,4.16,1.892.165.8.284,1.036.527,1.036.291,0,.313-.245.313-3.479,0-3.283-.019-3.478-.326-3.478-.249,0-.353.175-.444.739-.28,1.759-.9,2.044-4.442,2.044H50.957V12.87h3.408c4.419,0,4.959.249,5.379,2.486.185.986,1.052.978.889-.008a18.8,18.8,0,0,1-.109-2.174l0-1.522H52.87c-7.537,0-7.653,0-7.653.348M63.13,12c0,.289.116.348.685.348,2.142,0,2.122-.088,2.061,9.417l-.05,7.831-.481.414A2.747,2.747,0,0,1,64,30.539c-.69.091-.867.181-.867.44,0,.309.214.325,4.261.325s4.261-.016,4.261-.325c0-.259-.177-.349-.866-.44a2.739,2.739,0,0,1-1.348-.529l-.481-.414L68.9,25.841l-.053-3.754.923,0,.923.005,3.3,4.6,3.3,4.6,2.653.006,2.652.005V30.87c0-.339-.089-.435-.4-.435-1.75,0-2.941-1.064-6.032-5.389-2.522-3.529-2.424-3.245-1.265-3.653,5.218-1.838,4.584-8.537-.9-9.551-2.044-.378-10.875-.249-10.875.158m18.783,0c0,.271.116.348.527.348A3.911,3.911,0,0,1,85,13.61l.739.723L85.732,21.3c-.01,8.93-.023,8.991-1.92,9.243-.679.09-.855.18-.855.439,0,.307.195.325,3.478.325s3.478-.018,3.478-.325c0-.259-.177-.349-.866-.44A2.739,2.739,0,0,1,87.7,30.01l-.482-.414-.041-6.755c-.033-5.4,0-6.7.174-6.483,5.357,6.737,12.436,15.12,12.767,15.12h.4l.048-9.145.048-9.146.488-.42a1.755,1.755,0,0,1,1.347-.419c.744,0,.86-.047.86-.348,0-.336-.116-.348-3.478-.348s-3.478.012-3.478.348c0,.289.116.348.687.348,1.92,0,1.936.065,1.881,7.369l-.046,6.065-5.74-7.061L87.391,11.66l-2.739,0c-2.624,0-2.739.011-2.739.344m43.478,0c0,.291.116.348.705.348,1.986,0,1.972-.053,2.044,8.087.085,9.708.059,9.846-1.9,10.106-.674.089-.848.18-.848.44,0,.316.259.325,7.6.282l7.6-.046.74-2.338c1.025-3.241,1.006-3.14.594-3.14-.25,0-.476.276-.817,1-1.189,2.514-2.386,3.076-6.559,3.077-3.812,0-3.415.993-3.415-8.524V13.571l.5-.555c.434-.486.631-.565,1.566-.633.9-.065,1.069-.128,1.069-.4,0-.311-.211-.327-4.435-.327-4.319,0-4.435.009-4.435.348m17.6.179a2.645,2.645,0,0,0,.674,4.693,2.614,2.614,0,0,0,2.977-3.818,2.745,2.745,0,0,0-3.651-.875m2.544.347a2.143,2.143,0,0,1,.794,2.821l-.283.547-.6-.658-.6-.658.364-.339c.817-.761.173-1.539-1.283-1.55-.846-.005-.86-.014-.44-.254a2,2,0,0,1,2.054.091m-73.171.542a3.907,3.907,0,0,1,1.4,6.62,4.9,4.9,0,0,1-3.543,1.3l-1.347.1V13.066l.565-.071a8.067,8.067,0,0,1,2.926.073m70.943,1.28c0,1.331-.326,1.764-.793,1.052a1.714,1.714,0,0,1-.207-1.229c.2-1.744,1-1.6,1,.177m1.117-1.2a.549.549,0,0,1,.066.9c-.35.35-.487.237-.487-.4,0-.654.006-.662.421-.5m.159,2.142a1.8,1.8,0,0,0,.849.752c.383.066.38.076-.092.274a2.24,2.24,0,0,1-1.956-.051c-.316-.239-.3-.255.315-.26.358,0,.652-.084.652-.18a.174.174,0,0,0-.174-.174c-.1,0-.174-.235-.174-.522,0-.669.037-.658.58.161m-29.621,4.584A32.752,32.752,0,0,1,116.31,23.4a29.866,29.866,0,0,1-3.128.038l-3.041-.048,1.577-3.692a18.6,18.6,0,0,1,1.69-3.478c.063.117.761,1.762,1.551,3.654" transform="translate(-13.739 -3.304)" fill-rule="evenodd"/>
</svg>