<svg xmlns="http://www.w3.org/2000/svg" width="1134.404" height="67.872" viewBox="0 0 1134.404 67.872">
  <g id="Group_4321" data-name="Group 4321" transform="translate(16406.033 13258)">
    <g id="svgg" transform="translate(-16406.033 -13246.689)">
      <path id="path0" d="M266.661,38.017c.012,3.363.1,7.077.2,8.252.216,2.651.3,2.592-1.336.971-4.472-4.436-12.763-4.294-16.954.291-5.3,5.8-5.215,19.26.155,24.617,4.375,4.363,12.444,4.4,16.788.066,1.665-1.66,1.513-1.67,1.71.119.3,2.7.164,2.553,2.3,2.553h1.875V31.9h-4.75l.02,6.115M295.85,53.393V74.885h3.285l.41-1.9c.464-2.153.672-2.276,1.693-1.009,3.09,3.829,11.092,4.538,15.685,1.389,6.722-4.609,7.6-19.879,1.489-25.986-4.531-4.531-13.224-4.407-17.206.245a5.967,5.967,0,0,1-.868.9c-.052,0-.062-3.74-.02-8.312L300.4,31.9H295.85V53.393M50.061,54.68V74.885h4.75V59.036l4.572-.129c11.252-.315,16.334-4.284,16.324-12.747-.008-5.861-2.58-9.241-8.348-10.967-1.6-.48-2.364-.529-9.52-.62l-7.778-.1v20.2M65.475,39.135c4.126,1.307,6.062,4.677,5.25,9.14-.883,4.855-4.306,6.663-12.62,6.663H54.811V38.5l4.691.116c3.511.086,5.013.218,5.974.523m26.976,5.221c-6.936,1.438-10.426,6.57-10.43,15.331,0,9.86,5.132,15.674,13.847,15.674,8.734,0,13.663-5.606,13.676-15.555.015-11.171-7.028-17.538-17.093-15.45m76.942-.08c-12.122,2.455-14.318,24-3.017,29.6,3.656,1.813,9.859,2.026,14.416.5l2.375-.8.069-2.07.069-2.071-1.018.374c-10.336,3.8-17.371.848-18.35-7.69l-.17-1.484h21.012l-.138-3.146c-.425-9.652-6.565-14.974-15.246-13.215m34.909-.036a11.193,11.193,0,0,0-6.22,4.454l-1.141,1.6-.164-1.3c-.089-.715-.232-2.022-.316-2.9l-.153-1.6h-3.762v30.4h4.469l.105-9.2c.115-9.972.186-10.575,1.5-12.813,1.946-3.32,4-4.466,7.981-4.459l2.772,0,.119-.6c.066-.33.194-1.251.284-2.048l.164-1.449-.917-.152a17.383,17.383,0,0,0-4.717.07m18.208.255c-11.8,3.091-13.361,23.834-2.218,29.428,3.746,1.88,10.525,1.946,15.336.149l1.446-.54.069-2.083c.064-1.921.036-2.071-.356-1.917-10.73,4.2-19.043.813-19.064-7.767l0-1.128h20.661V57.825c0-9.924-6.864-15.69-15.871-13.33m-109.915.527c.074.294,1.929,7.133,4.122,15.2l3.991,14.664h5.306l.84-2.553c2.811-8.554,5.637-17.647,6.207-19.977.767-3.137.7-3.194,1.983,1.632.539,2.024,2.188,7.528,3.665,12.23l2.684,8.549,2.78.067a16.394,16.394,0,0,0,2.779-.051c0-.1,7.811-28.485,8.222-29.878.11-.375-.1-.415-2.253-.415-2.056,0-2.391.056-2.5.415-.461,1.561-5.29,20.367-5.74,22.351-.308,1.354-.6,2.5-.643,2.547a12.207,12.207,0,0,1-.62-2.185c-.505-2.136-6.409-21.43-6.917-22.6-.226-.522-.33-.54-2.667-.475l-2.433.068-3.043,9.5c-1.675,5.224-3.4,10.865-3.831,12.535s-.836,3.085-.9,3.146a11.8,11.8,0,0,1-.642-2.443c-.42-2.016-2.675-11-5.511-21.966l-.23-.89h-2.393c-2.363,0-2.391.007-2.261.534m212.057-.237c.065.163,2.8,6.966,6.081,15.118S336.7,74.856,336.7,75.018a20.154,20.154,0,0,1-.857,2.515c-2.232,5.783-3.613,6.97-8.108,6.97H325.06V88.12l1.1.151c6.313.865,10.052-1.133,12.786-6.836.809-1.687,13.625-35.41,13.838-36.412.156-.734-4.516-.851-4.8-.119-.742,1.888-7.023,19.569-7.882,22.191l-1.094,3.337-1.229-3.769c-.675-2.073-2.817-7.91-4.759-12.971l-3.529-9.2h-2.477c-1.886,0-2.448.071-2.358.3M98.488,48.314c8.336,1.886,8.862,19.836.665,22.695-7.145,2.492-12.5-2.361-12.5-11.323,0-8.79,4.431-13.047,11.838-11.372m75.812-.178c3.113.733,4.984,3.251,5.353,7.2l.139,1.5H164.051v-.67A8.33,8.33,0,0,1,174.3,48.136m55.1.428a7.017,7.017,0,0,1,3.873,5.579c.08.633.2,1.5.266,1.922l.119.772h-7.966c-6.217,0-7.965-.066-7.962-.3.073-6.14,6.2-10.328,11.671-7.976m30.326-.5c5.26.854,7.122,4.427,6.857,13.163-.2,6.585-1.86,9.253-6.294,10.111C253.276,72.691,249.5,68.6,249.52,59.69c.02-8.573,3.636-12.694,10.2-11.628m52.928.511c6.649,2.458,6.939,18.976.388,22.181-3,1.466-7.587.865-9.908-1.3-3.488-3.248-3.732-15.3-.385-19.1,1.991-2.262,6.44-3.062,9.9-1.781" transform="translate(-50.061 -31.902)" fill-rule="evenodd"/>
    </g>
    <g id="svgg-2" data-name="svgg" transform="translate(-16069.448 -13258)">
      <path id="path0-2" data-name="path0" d="M13.739,4.188c0,.82.181.9,2.444,1.08,3.223.26,5.248,1.526,5.676,3.548.6,2.849.364,48.438-.263,49.651-.968,1.878-2.358,2.614-5.25,2.778-2.591.146-2.608.153-2.608,1.226v1.08H39.56V62.432c0-1.1-.032-1.123-1.965-1.132-2.6-.011-4.906-1.08-5.775-2.675C31,57.117,30.555,17.316,31.3,11.276c.555-4.542,2.186-6.1,6.382-6.1,1.76,0,1.883-.062,1.883-.936V3.3H13.739v.884M319.688,7.328c-.127,2.212-.325,5.412-.443,7.109l-.213,3.088h1.155c.96,0,1.158-.146,1.158-.867,0-3.544,3.1-7.966,6.173-8.818a41.823,41.823,0,0,1,6.83-.417l5.332,0V32.4c0,23.043-.052,25.079-.654,26.258-.893,1.741-2.75,2.651-5.42,2.651-2.147,0-2.158,0-2.158,1.123v1.121h25.821V62.432c0-1.117-.013-1.123-2.126-1.123-2.789,0-5.117-1.1-5.792-2.733-.392-.942-.519-6.492-.6-26.176l-.108-24.98H354.2c9.274,0,11.946,1.777,13.367,8.889.2.97.428,1.216,1.149,1.216,1.056,0,1.082-.349.663-9.108L369.129,3.3h-49.21l-.23,4.024m-98.083,30.1c-9.954,23.318-10,23.411-12.9,24.147-.93.237-1.345.572-1.429,1.153-.12.82-.11.82,6.855.82h6.974l-.118-.841a1.031,1.031,0,0,0-1.057-.947c-4.349-.486-4.6-1.558-1.9-7.94l1.825-4.3,7.989-.1,7.989-.1,1.78,4.4c2.474,6.12,2.348,7.428-.77,7.933-1.063.17-1.412.417-1.5,1.059l-.12.837h16.945l-.12-.837a1.094,1.094,0,0,0-.867-.958c-3.473-.549-3.86-1.233-12.9-22.828-6.328-15.125-7.923-18.619-8.532-18.712-.658-.1-1.665,2.029-8.146,17.214M429.212,20.688c-15.314,3.49-21.784,23.125-11.979,36.349,6.447,8.691,21.4,9.907,29.068,2.36,1.754-1.728,4.523-5.4,4.523-6,0-1.278-1.5-.4-4.14,2.414-6.051,6.466-14.354,7.325-20.84,2.152-5.96-4.753-7.68-18.275-3.456-27.157,5.7-11.981,22.378-10.087,25.64,2.911.293,1.16,1.67,1.459,1.674.364.017-5.4-.945-13.941-1.571-13.941a1.279,1.279,0,0,0-1.018.843c-.71,1.857-1.754,2.363-3.316,1.61a23.185,23.185,0,0,0-14.587-1.909m132.39.23c-20.375,5.334-20.513,37.516-.183,42.811,13.687,3.565,26.152-6.787,26.124-21.694-.028-14.763-12.239-24.7-25.941-21.117m85.035-.207c-15.906,3.456-21.642,25.875-9.679,37.825,11.452,11.439,31.078,5.237,34.464-10.888,3.5-16.661-9.1-30.348-24.786-26.938m46.678-.006c-19.288,4.374-23.12,32.82-5.547,41.167,6.922,3.286,17.02,3.286,24.145,0l2.694-1.244.112-8.424c.129-9.56.372-10.354,3.174-10.354.994,0,1.244-.148,1.244-.747,0-.727-.25-.749-8.232-.749s-8.233.022-8.233.749c0,.607.25.747,1.328.747,3.725,0,4.024.725,4.2,10.158l.146,7.727-2.184.824c-13.8,5.2-25.558-8.368-21.642-24.98,3.509-14.888,21.539-17.754,27.377-4.355,1.289,2.963,2.391,3.34,2.341.8-.123-6.382-.908-11.695-1.747-11.813-.676-.1-.841.06-.841.8,0,1.878-.833,1.99-4.792.652a26.541,26.541,0,0,0-13.545-.955m99.068-.174c-5.371,1.347-8.689,5.487-8.687,10.84,0,5.209,2.119,7.882,9.775,12.345,7.533,4.387,9.416,5.622,10.561,6.929,4.59,5.224-.521,12.041-8.067,10.759-5.683-.966-8.654-3.9-10.221-10.1-.3-1.194-.585-1.59-1.136-1.59-.7,0-.734.3-.734,7.3,0,7.882.349,8.984,1.947,6.171.788-1.381,1.087-1.381,5.691.006,11.124,3.355,20.02-1.313,20.046-10.516.017-5.868-1.715-7.86-11.925-13.722-9.711-5.571-11.673-7.632-10.544-11.058,2.926-8.869,15.785-5.069,18.014,5.323.319,1.483.566,1.9,1.125,1.9.682,0,.716-.357.716-7.484,0-8.11-.336-9.19-1.969-6.32-.777,1.362-1.616,1.356-5.328-.047a19.522,19.522,0,0,0-9.268-.732M43.9,23.606c-.577,6.434-.506,7.766.42,7.766.684,0,.854-.207.854-1.044,0-3.974,2.576-5.846,8.269-6.006l4.476-.125-.105,17.84-.1,17.84-1.037.891a5.893,5.893,0,0,1-2.9,1.138c-1.485.2-1.866.389-1.866.947,0,.665.46.7,9.169.7s9.169-.034,9.169-.7c0-.557-.381-.751-1.863-.947a5.893,5.893,0,0,1-2.9-1.138l-1.037-.891L64.337,42.07,64.23,24.26h4.013c5.9,0,8.314,1.487,8.956,5.521.194,1.214.42,1.59.953,1.59.747,0,1.026-5.287.46-8.7l-.23-1.4H44.111L43.9,23.606m37.571-1.59c0,.637.25.749,1.668.749,4.4,0,4.321-.342,4.321,19.919V59.495l-1.074,1.074a4.606,4.606,0,0,1-3,1.33c-1.534.2-1.919.4-1.919.955,0,.673.626.7,16.383.7h16.383l1.631-4.958c.9-2.726,1.711-5.168,1.807-5.427.43-1.151-1.646-.452-2.218.749-2.653,5.549-5.125,6.776-13.7,6.806-8.609.03-7.936.876-7.936-9.967V42.532l6.081.127c7.516.155,8.207.469,8.951,4.071.355,1.726.611,2.229,1.134,2.229.626,0,.673-.527.673-7.486,0-7.064-.041-7.484-.7-7.484-.536,0-.76.377-.955,1.59-.6,3.785-1.937,4.4-9.558,4.4H93.822V23.888h7.333c9.509,0,10.67.536,11.574,5.349.4,2.122,2.264,2.1,1.913-.017a40.447,40.447,0,0,1-.235-4.678l0-3.275H97.939c-16.218,0-16.467.011-16.467.749m38.544,0c0,.622.25.749,1.474.749,4.609,0,4.566-.189,4.435,20.263l-.108,16.85-1.035.891a5.91,5.91,0,0,1-2.9,1.138c-1.485.2-1.866.389-1.866.947,0,.665.46.7,9.169.7s9.169-.034,9.169-.7c0-.557-.381-.751-1.863-.947a5.893,5.893,0,0,1-2.9-1.138l-1.035-.891-.116-8.08-.114-8.078,1.986.011,1.986.011,7.109,9.894,7.109,9.894,5.709.013,5.706.011v-.934c0-.729-.192-.936-.869-.936-3.766,0-6.328-2.289-12.979-11.6-5.427-7.593-5.216-6.982-2.722-7.86,11.228-3.955,9.864-18.369-1.943-20.551-4.4-.813-23.4-.536-23.4.34m40.416,0c0,.583.25.749,1.134.749a8.416,8.416,0,0,1,5.508,2.715l1.59,1.556-.015,14.985c-.022,19.215-.049,19.346-4.131,19.889-1.461.194-1.84.387-1.84.945,0,.661.42.7,7.484.7s7.484-.039,7.484-.7c0-.557-.381-.751-1.863-.947a5.893,5.893,0,0,1-2.9-1.138l-1.037-.891-.088-14.535c-.071-11.611,0-14.417.374-13.95,11.527,14.5,26.759,32.534,27.471,32.534h.852l.1-19.678.1-19.68,1.05-.9a3.777,3.777,0,0,1,2.9-.9c1.6,0,1.851-.1,1.851-.749,0-.723-.25-.749-7.484-.749s-7.484.026-7.484.749c0,.622.25.749,1.478.749,4.131,0,4.166.14,4.047,15.856l-.1,13.05L184.568,36.477,172.219,21.284l-5.894-.009c-5.646-.009-5.894.024-5.894.74m93.553,0c0,.626.25.749,1.517.749,4.273,0,4.243-.114,4.4,17.4.183,20.889.127,21.186-4.09,21.745-1.45.192-1.825.387-1.825.947,0,.68.557.7,16.349.607l16.349-.1,1.592-5.031c2.206-6.974,2.165-6.756,1.278-6.756-.538,0-1.024.594-1.758,2.143-2.558,5.409-5.134,6.619-14.113,6.621-8.2,0-7.348,2.137-7.348-18.341V25.4L267.4,24.2c.934-1.046,1.358-1.216,3.37-1.362,1.943-.14,2.3-.275,2.3-.869,0-.669-.454-.7-9.543-.7-9.293,0-9.543.019-9.543.749m119,0c0,.648.25.749,1.85.749a3.769,3.769,0,0,1,2.9.9l1.05.9V59.875l-1,.865a6.078,6.078,0,0,1-2.9,1.125c-1.528.211-1.894.4-1.894.979,0,.7.452.714,16.321.62l16.323-.1,1.818-5.237c1-2.883,1.823-5.283,1.827-5.334.105-1.211-1.977.4-3.423,2.655-2.976,4.635-4.968,5.425-13.782,5.455-6.957.026-6.722.374-6.731-9.98l0-8.327,5.519.009c7.755.011,9.823,1.246,9.823,5.859,0,.273.338.495.749.495.723,0,.749-.25.749-7.486,0-7.12-.034-7.484-.717-7.484-.538,0-.775.357-.958,1.435-.661,3.914-2.029,4.547-9.833,4.551l-5.332,0V23.888h7.122c9.319,0,10.544.514,11.589,4.867,1.177,4.9,2.58-.336,1.629-6.085l-.23-1.4H389.215c-15.979,0-16.228.013-16.228.749m80.456-.047c0,.583.357.734,2.083.876a4.149,4.149,0,0,1,3.088,1.177l1,1,.125,14.869c.176,20.771.043,21.449-4.336,22-1.588.2-1.965.383-1.965.953,0,.671.437.7,9.169.7,8.71,0,9.168-.034,9.168-.7,0-.531-.372-.76-1.536-.947-4.1-.656-4.174-.831-4.368-10.608l-.159-7.953h19.161V59.495L483.8,60.568a4.605,4.605,0,0,1-2.993,1.33c-1.534.2-1.919.4-1.919.955,0,.665.461.7,9.169.7s9.169-.034,9.169-.7c0-.531-.372-.76-1.536-.947-4.424-.708-4.265.028-4.265-19.684,0-19.688-.049-19.458,4.284-19.458,1.267,0,1.517-.123,1.517-.749,0-.727-.25-.749-9.169-.749-8.717,0-9.169.034-9.169.7,0,.585.359.734,2.122.88,3.74.31,3.867.637,3.867,10.04v7.839H465.716l.131-7.89.131-7.888,1.222-1.093a3.609,3.609,0,0,1,2.9-1.091c1.429,0,1.678-.112,1.678-.749,0-.727-.25-.749-9.168-.749-8.717,0-9.169.034-9.169.7m44.158.047c0,.583.25.749,1.134.749a8.421,8.421,0,0,1,5.508,2.715l1.59,1.556-.024,14.8c-.028,19.458-.032,19.478-4.09,20.037-1.5.207-1.874.4-1.874.97,0,.678.372.712,7.484.712,7.053,0,7.486-.039,7.486-.7,0-.54-.37-.749-1.637-.921-4.465-.613-4.413-.407-4.276-17.337l.112-13.53L522.447,47.5c10.791,13.2,13.605,16.429,14.313,16.429h.88V24.953l1.1-1.1c.921-.921,1.392-1.093,2.993-1.093,1.65,0,1.9-.1,1.9-.749,0-.723-.25-.749-7.484-.749s-7.486.026-7.486.749c0,.639.25.749,1.713.749a3.175,3.175,0,0,1,2.808,1.093l1.093,1.1V38.287c0,7.335-.127,13.255-.28,13.154s-5.754-6.922-12.443-15.161L509.388,21.3l-5.894-.017c-5.65-.015-5.894.017-5.894.734m93.179,0c0,.648.25.749,1.851.749,4.3,0,4.476.745,4.491,19.084.019,19.407,0,19.5-4.31,20.041-1.655.207-2.031.385-2.031.962,0,.689.521.708,16.521.613l16.521-.1,1.816-5.784c2.124-6.774,1.986-6,1.087-6-.521,0-1.121.749-2.115,2.638-2.726,5.192-4.811,6.124-13.72,6.126-5.612,0-5.937-.037-6.735-.835l-.839-.839V42.27c0-19.555-.013-19.506,5.2-19.506,1.472,0,1.721-.11,1.721-.749,0-.729-.25-.749-9.73-.749s-9.73.019-9.73.749m130.6,0c0,.63.25.749,1.59.749,4.508,0,4.465-.2,4.323,20.521l-.114,16.592-1.035.891a5.9,5.9,0,0,1-2.9,1.138c-1.485.2-1.863.389-1.863.947,0,.665.458.7,9.169.7s9.166-.034,9.166-.7c0-.557-.379-.751-1.863-.947a5.883,5.883,0,0,1-2.9-1.14l-1.035-.891V24.656l.82-.82a4.327,4.327,0,0,1,2.9-.992c1.724-.144,2.079-.293,2.079-.876,0-.667-.45-.7-9.166-.7-8.919,0-9.169.022-9.169.749m20.956-.047c0,.585.357.734,2.12.878,3.933.327,3.987.633,3.794,21.81-.155,17.115-.011,16.553-4.377,17.25-1.164.187-1.536.415-1.536.947,0,.673.62.7,16.248.7h16.248l.831-2.526c.458-1.388,1.31-3.83,1.893-5.425l1.061-2.9h-.891c-.665,0-1.151.443-1.919,1.754-3.159,5.39-5.059,6.262-13.7,6.279-8.295.017-7.572.925-7.742-9.73L754.23,42.6l5.56.022c7.718.03,9.141.68,9.784,4.469.228,1.349.452,1.708,1.119,1.8l.833.121V41.5c0-7.174-.032-7.512-.723-7.512-.727,0-.891.308-1.332,2.5-.59,2.944-2.122,3.49-9.78,3.49h-5.379V23.888h7.31c9.584,0,10.32.3,11.628,4.77.437,1.491.749,1.965,1.3,1.965.828,0,.865-.465.478-5.93l-.243-3.426H758.559c-15.615,0-16.222.026-16.222.7M291.849,22.4c-3.92,2.391-2.987,8.9,1.45,10.1a5.624,5.624,0,0,0,6.406-8.215c-1.349-2.513-5.278-3.454-7.856-1.883m5.474.747a4.611,4.611,0,0,1,1.708,6.07l-.609,1.177-1.3-1.416-1.3-1.416.783-.729c1.758-1.637.372-3.312-2.761-3.335-1.82-.011-1.85-.03-.947-.547a4.3,4.3,0,0,1,4.42.2m274.508.678c7.4,3.273,10.791,18.524,6.608,29.7-3.15,8.418-13.965,10.935-19.8,4.607-7.972-8.65-5.906-30.645,3.219-34.3a13.8,13.8,0,0,1,9.971-.009m84.333.049c6.406,2.765,9.954,14.227,7.847,25.33-3.086,16.252-20.876,17.05-24.943,1.121C634.645,33,643.951,18.6,656.164,23.875m-516.286.439c6.113,1.831,7.822,9.917,3.01,14.245-2.152,1.934-3.7,2.5-7.624,2.8l-2.9.222V24.309l1.216-.153a17.359,17.359,0,0,1,6.3.157m152.651,2.754c0,2.864-.7,3.8-1.706,2.264a3.687,3.687,0,0,1-.445-2.644c.424-3.753,2.152-3.447,2.152.381m2.4-2.58a1.181,1.181,0,0,1,.142,1.943c-.753.753-1.048.51-1.048-.861,0-1.407.013-1.424.906-1.082m.342,4.609a3.877,3.877,0,0,0,1.827,1.618c.824.142.818.164-.2.59a4.82,4.82,0,0,1-4.209-.11c-.68-.514-.639-.549.678-.559.77-.009,1.4-.181,1.4-.387a.375.375,0,0,0-.374-.374c-.207,0-.374-.506-.374-1.123,0-1.44.08-1.416,1.248.346M231.538,38.96a70.471,70.471,0,0,1,2.907,7.587,64.262,64.262,0,0,1-6.731.082l-6.543-.1,3.393-7.944c1.866-4.37,3.5-7.738,3.636-7.484s1.637,3.791,3.337,7.862" transform="translate(-13.739 -3.304)" fill-rule="evenodd"/>
    </g>
  </g>
</svg>
